<svg width="80" height="80" viewBox="0 0 80 80" fill="none" xmlns="http://www.w3.org/2000/svg">
<path d="M40.0001 71.3667H19.8001C8.23339 71.3667 3.40006 63.1 9.00006 53L19.4001 34.2667L29.2001 16.6667C35.1334 5.96666 44.8667 5.96666 50.8001 16.6667L60.6001 34.3L71.0001 53.0333C76.6001 63.1333 71.7334 71.4 60.2001 71.4H40.0001V71.3667Z" stroke="#FCD535" stroke-width="4" stroke-linecap="round" stroke-linejoin="round"/>
<path d="M71.4667 66.6667L40 44.6333L8.53333 66.6667" stroke="#FCD535" stroke-width="4" stroke-linecap="round" stroke-linejoin="round"/>
<path d="M40 9.5238L40 44.7619" stroke="#FCD535" stroke-width="4" stroke-linecap="round" stroke-linejoin="round"/>
<g opacity="0.5">
<path d="M40 8.63333V45.3667L8.83329 67.1667C5.99996 63.8 5.83329 58.7 8.99996 53L19.4 34.3L29.2 16.6667C32.1666 11.3333 36.0666 8.63333 40 8.63333Z" fill="#FCD535"/>
<path opacity="0.6" d="M71.1667 67.1667C69 69.8 65.2334 71.3667 60.2 71.3667H19.8C14.7667 71.3667 11 69.8 8.83337 67.1667L40 45.3667L71.1667 67.1667Z" fill="#FCD535"/>
<path opacity="0.4" d="M71.1667 67.1667L40 45.3667V8.63333C43.9333 8.63333 47.8333 11.3333 50.8 16.6667L60.6 34.3L71 53C74.1667 58.7 74 63.8 71.1667 67.1667Z" fill="#FCD535"/>
</g>
</svg>
