<svg width="27" height="27" fill="none" xmlns="http://www.w3.org/2000/svg">
    <path fill-rule="evenodd" clip-rule="evenodd" d="M23.135 3.258H3.589c-.9 0-1.63.729-1.63 1.629v14.66l4.311-3.834a.814.814 0 0 1 1.028-.102l4.331 2.887 6.043-6.043a.814.814 0 0 1 .94-.153l6.152 3.172v5.706V4.887c0-.9-.73-1.63-1.63-1.63zM3.589 1.628A3.258 3.258 0 0 0 .33 4.888v16.288c0 1.8 1.458 3.258 3.258 3.258h19.546c1.799 0 3.257-1.459 3.257-3.258V4.887c0-1.8-1.458-3.258-3.257-3.258H3.589zm6.515 7.33a2.443 2.443 0 1 1-4.887 0 2.443 2.443 0 0 1 4.887 0z" fill="#616161"/>
</svg>
