<svg width="1440" height="1079" fill="none" xmlns="http://www.w3.org/2000/svg">
    <path fill="#E0E0E0" d="M0 0h1440v1080H0z"/>
    <path d="M1 1h1438v70H1V1z" fill="#fff"/>
    <path d="M41 52V32H31v10l10 10z" fill="#5668D5"/>
    <path d="M51 32V22H31l10 10H31v10h20L41 32h10z" fill="#223189"/>
    <path d="M62.68 46h2.508v-7.38h6.288V36.1h-6.288v-4.872h7.728V28.72H62.68V46zm12.638 0h2.508V28.36h-2.508V46zm10.996.348c.936 0 1.764-.168 2.484-.504a4.872 4.872 0 0 0 1.8-1.392V46h2.232V33.04h-2.532v6.744c0 1.024-.148 1.844-.444 2.46-.296.608-.696 1.048-1.2 1.32a3.362 3.362 0 0 1-1.644.408c-.688 0-1.248-.14-1.68-.42a2.816 2.816 0 0 1-.996-1.104 5.073 5.073 0 0 1-.48-1.476c-.08-.536-.12-1.056-.12-1.56V33.04H81.19v7.2c0 .4.036.864.108 1.392.072.528.208 1.068.408 1.62.2.552.488 1.064.864 1.536.384.464.88.84 1.488 1.128.608.288 1.36.432 2.256.432zM103.612 46v-2.124c-.848.128-1.588.156-2.22.084-.624-.08-1.08-.364-1.368-.852-.152-.264-.236-.588-.252-.972a66.228 66.228 0 0 1-.012-1.356v-5.724h3.852V33.04H99.76v-3.6h-2.52v3.6h-2.484v2.016h2.484V40.9c0 .704.008 1.336.024 1.896a3.86 3.86 0 0 0 .456 1.632c.32.6.788 1.04 1.404 1.32.616.28 1.316.432 2.1.456.784.024 1.58-.044 2.388-.204zm10.148 0v-2.124c-.848.128-1.588.156-2.22.084-.624-.08-1.08-.364-1.368-.852-.152-.264-.236-.588-.252-.972a66.228 66.228 0 0 1-.012-1.356v-5.724h3.852V33.04h-3.852v-3.6h-2.52v3.6h-2.484v2.016h2.484V40.9c0 .704.008 1.336.024 1.896a3.86 3.86 0 0 0 .456 1.632c.32.6.788 1.04 1.404 1.32.616.28 1.316.432 2.1.456.784.024 1.58-.044 2.388-.204zm7.871.36c1.256 0 2.396-.316 3.42-.948 1.024-.64 1.788-1.54 2.292-2.7l-2.46-.78c-.656 1.376-1.78 2.064-3.372 2.064-1.088 0-1.944-.328-2.568-.984-.624-.656-.988-1.584-1.092-2.784h9.66c.088-1.552-.096-2.892-.552-4.02-.456-1.128-1.148-1.996-2.076-2.604-.928-.616-2.052-.924-3.372-.924-1.264 0-2.372.284-3.324.852-.952.568-1.696 1.372-2.232 2.412-.528 1.04-.792 2.268-.792 3.684 0 1.336.268 2.512.804 3.528a5.973 5.973 0 0 0 2.268 2.364c.976.56 2.108.84 3.396.84zm-.024-11.46c1.96 0 3.072 1.124 3.336 3.372h-7.032c.16-1.096.548-1.932 1.164-2.508.616-.576 1.46-.864 2.532-.864zm8.596 11.1h2.532v-6.54c0-.76.12-1.464.36-2.112a3.105 3.105 0 0 1 1.272-1.56c.432-.28.908-.444 1.428-.492.52-.048.988-.016 1.404.096V33.04a5.02 5.02 0 0 0-1.86.012c-.648.12-1.216.36-1.704.72-.48.32-.88.764-1.2 1.332V33.04h-2.232V46zm16.17.36c1.36 0 2.556-.276 3.588-.828a6.121 6.121 0 0 0 2.424-2.352c.584-1.008.876-2.188.876-3.54V28.72h-2.544v10.788c0 .968-.212 1.788-.636 2.46a4.22 4.22 0 0 1-1.632 1.512 4.409 4.409 0 0 1-2.076.516 4.59 4.59 0 0 1-2.076-.504 4.22 4.22 0 0 1-1.632-1.512c-.424-.664-.636-1.488-.636-2.472V28.72l-2.544.012V39.64c0 1.352.292 2.532.876 3.54a6.121 6.121 0 0 0 2.424 2.352c1.04.552 2.236.828 3.588.828zm10.485-.36h2.508V28.72h-2.508V46z" fill="#414141"/>
    <rect x="1279.5" y="17.5" width="139" height="39" rx="1.5" fill="#fff"/>
    <path fill-rule="evenodd" clip-rule="evenodd" d="M1303 25c-2.14 0-4.03.84-5.39 2.013-1.15.99-1.98 2.28-2.2 3.574-2.51.556-4.41 2.746-4.41 5.39 0 3.072 2.56 5.523 5.67 5.523h5.58v-8.25c0-.414.34-.75.75-.75s.75.336.75.75v8.25h6.28c2.72 0 4.97-2.146 4.97-4.84 0-2.455-1.86-4.454-4.25-4.791-.37-3.87-3.71-6.869-7.75-6.869zM1302.47 48.78a.75.75 0 0 0 1.06 0l4.5-4.5a.75.75 0 1 0-1.06-1.06l-3.22 3.22V41.5h-1.5v4.94l-3.22-3.22a.75.75 0 1 0-1.06 1.06l4.5 4.5z" fill="#616161"/>
    <path d="M1324.12 43h3.67c.09 0 .28-.003.57-.008.29-.005.57-.024.83-.056.92-.117 1.69-.44 2.32-.968a4.986 4.986 0 0 0 1.43-2.032c.33-.821.49-1.72.49-2.696 0-.976-.16-1.875-.49-2.696a4.986 4.986 0 0 0-1.43-2.032c-.63-.533-1.4-.856-2.32-.968a8.05 8.05 0 0 0-.83-.056c-.28-.005-.47-.008-.57-.008h-3.67V43zm1.96-1.816v-7.888h1.71c.16 0 .36.005.61.016.25.005.47.03.66.072.54.101.97.339 1.32.712.34.373.59.835.76 1.384.17.544.25 1.13.25 1.76 0 .603-.08 1.179-.24 1.728-.16.55-.41 1.016-.76 1.4-.34.379-.78.621-1.33.728-.19.037-.41.061-.66.072-.25.01-.45.016-.61.016h-1.71zm13.86 2.056c.86 0 1.62-.192 2.26-.576.65-.39 1.15-.925 1.51-1.608.36-.688.54-1.48.54-2.376 0-.89-.18-1.677-.53-2.36a3.999 3.999 0 0 0-1.51-1.616c-.64-.39-1.4-.584-2.27-.584-.85 0-1.6.192-2.24.576-.65.384-1.15.917-1.51 1.6-.37.683-.55 1.477-.55 2.384 0 .89.18 1.68.53 2.368.36.683.86 1.219 1.51 1.608.64.39 1.4.584 2.26.584zm0-1.808c-.74 0-1.3-.248-1.69-.744-.38-.501-.57-1.17-.57-2.008 0-.816.18-1.477.55-1.984.37-.512.94-.768 1.71-.768.76 0 1.32.25 1.7.752.38.496.57 1.163.57 2 0 .81-.19 1.472-.57 1.984-.37.512-.94.768-1.7.768zm8.4 1.568h1.51l1.95-5.944 1.96 5.944h1.5l2.64-8.64h-1.89l-1.69 5.544-1.71-5.544h-1.62l-1.71 5.544-1.69-5.544-1.89-.016 2.64 8.656zm11.79 0h1.95v-4.44c0-.699.1-1.237.3-1.616.2-.384.46-.648.77-.792.31-.15.63-.224.96-.224.45 0 .82.101 1.09.304.27.197.47.45.6.76.13.304.22.621.26.952.04.33.06.63.06.896V43h1.95v-4.824c0-.203-.02-.472-.05-.808a4.94 4.94 0 0 0-.23-1.064c-.11-.373-.3-.725-.54-1.056a2.724 2.724 0 0 0-1-.816c-.42-.213-.94-.32-1.58-.32-.62 0-1.17.11-1.64.328-.47.213-.87.507-1.18.88v-.96h-1.72V43zm10.99 0h1.93V31.24h-1.93V43zm8.94.24c.87 0 1.62-.192 2.27-.576.64-.39 1.14-.925 1.5-1.608.36-.688.54-1.48.54-2.376 0-.89-.18-1.677-.53-2.36a3.999 3.999 0 0 0-1.51-1.616c-.64-.39-1.4-.584-2.27-.584-.85 0-1.59.192-2.24.576-.64.384-1.15.917-1.51 1.6-.36.683-.54 1.477-.54 2.384 0 .89.17 1.68.52 2.368.36.683.86 1.219 1.51 1.608.64.39 1.4.584 2.26.584zm0-1.808c-.74 0-1.3-.248-1.69-.744-.38-.501-.56-1.17-.56-2.008 0-.816.18-1.477.54-1.984.37-.512.94-.768 1.71-.768.76 0 1.33.25 1.71.752.37.496.56 1.163.56 2 0 .81-.19 1.472-.56 1.984-.38.512-.95.768-1.71.768zm9.29 1.808c.69 0 1.27-.112 1.75-.336.49-.23.92-.584 1.28-1.064V43h1.69v-5.304c0-.373-.01-.717-.05-1.032-.03-.32-.12-.632-.28-.936-.28-.57-.71-.981-1.3-1.232-.58-.25-1.26-.376-2.02-.376-1.02 0-1.83.221-2.43.664-.6.443-1.01 1.03-1.22 1.76l1.76.552c.14-.443.39-.755.76-.936.36-.181.74-.272 1.13-.272.58 0 1.01.12 1.29.36.28.235.44.6.47 1.096-.75.112-1.46.221-2.11.328-.64.101-1.19.227-1.65.376-.68.235-1.18.568-1.49 1-.32.427-.47.955-.47 1.584 0 .475.1.91.32 1.304.23.395.56.712.99.952.43.235.96.352 1.58.352zm.39-1.536c-.46 0-.8-.104-1.04-.312a.994.994 0 0 1-.36-.784c0-.283.09-.512.28-.688.18-.176.44-.325.77-.448.31-.101.67-.19 1.1-.264.42-.08.98-.173 1.67-.28-.01.203-.02.43-.04.68-.02.245-.07.467-.15.664-.07.197-.19.408-.38.632-.18.224-.43.413-.73.568-.31.155-.69.232-1.12.232zm10.68 1.536c.51 0 .97-.077 1.38-.232.41-.155.77-.37 1.08-.648V43h1.71V31.48h-1.95v3.304a3.245 3.245 0 0 0-.97-.488 3.73 3.73 0 0 0-1.18-.176c-.82 0-1.52.197-2.13.592-.59.395-1.06.936-1.39 1.624-.33.688-.5 1.47-.5 2.344 0 .864.17 1.64.49 2.328a4.03 4.03 0 0 0 1.38 1.632c.59.4 1.28.6 2.08.6zm.29-1.728c-.5 0-.91-.125-1.24-.376a2.321 2.321 0 0 1-.72-1.024 4.053 4.053 0 0 1-.24-1.432c0-.523.08-.997.24-1.424.17-.432.42-.773.75-1.024.33-.256.76-.384 1.28-.384.73 0 1.27.261 1.6.784.33.523.5 1.205.5 2.048 0 .837-.17 1.52-.5 2.048-.33.523-.89.784-1.67.784z" fill="#616161"/>
    <rect x="1279.5" y="17.5" width="139" height="39" rx="1.5" stroke="silver"/>
    <path d="M0 0v-1h-1v1h1zm1440 0h1v-1h-1v1zm0 72v1h1v-1h-1zM0 72h-1v1h1v-1zM0 1h1440v-2H0v2zm1439-1v72h2V0h-2zm1 71H0v2h1440v-2zM1 72V0h-2v72h2z" fill="silver"/>
    <g clip-path="url(#a)">
        <path d="M0 71h61v1009H0V71z" fill="#fff"/>
        <path opacity=".5" d="M0 71h61.763v73.2H0V71z" fill="#C5DCFA"/>
        <g clip-path="url(#b)" fill="#0F56B3">
            <g clip-path="url(#c)" fill-rule="evenodd" clip-rule="evenodd">
                <path d="M39.097 86.25c.114.5.172 1.01.172 1.525h-6.863v-6.863a6.861 6.861 0 0 1 6.691 5.338zm-1.576 0a5.338 5.338 0 0 0-3.59-3.59v3.59h3.59z"/>
                <path d="M22.494 90.825a6.862 6.862 0 0 1 8.387-6.69V89.3h5.166a6.863 6.863 0 1 1-13.553 1.525zm12.05 0h-5.188v-5.188a5.188 5.188 0 1 0 5.188 5.188z"/>
            </g>
            <path d="M28.841 116.73c.688 0 1.292-.14 1.812-.42.524-.28.932-.674 1.224-1.182.296-.508.444-1.104.444-1.788v-5.43h-1.464v5.394c0 .428-.094.796-.282 1.104-.184.308-.43.546-.738.714a2.064 2.064 0 0 1-.996.246c-.348 0-.676-.082-.984-.246a1.958 1.958 0 0 1-.75-.708c-.188-.308-.282-.678-.282-1.11v-5.394l-1.464.012v5.418c0 .684.146 1.28.438 1.788a3.07 3.07 0 0 0 1.23 1.182c.524.28 1.128.42 1.812.42zm5.637-.18h1.446v-8.64h-1.446v8.64zm-24.63 16h3.774c.852 0 1.498-.236 1.938-.708.44-.472.66-1.092.66-1.86 0-.436-.108-.832-.324-1.188a1.937 1.937 0 0 0-.942-.798c.268-.16.478-.386.63-.678.156-.296.234-.64.234-1.032 0-.388-.092-.764-.276-1.128a2.178 2.178 0 0 0-.834-.894c-.372-.236-.85-.354-1.434-.354H9.848v8.64zm1.464-5.19v-2.1h1.944c.344 0 .612.1.804.3.192.2.288.45.288.75 0 .344-.106.606-.318.786a1.157 1.157 0 0 1-.774.264h-1.944zm0 3.828v-2.478h2.172c.404 0 .718.118.942.354.224.236.336.528.336.876 0 .384-.126.688-.378.912-.248.224-.562.336-.942.336h-2.13zm8.896 1.548c.468 0 .878-.08 1.23-.24.356-.164.652-.386.888-.666v.72h1.278v-6.48h-1.452v3.33c0 .524-.076.93-.228 1.218-.148.284-.338.482-.57.594a1.688 1.688 0 0 1-.72.162c-.344 0-.618-.074-.822-.222a1.404 1.404 0 0 1-.456-.57 2.818 2.818 0 0 1-.192-.72 6.043 6.043 0 0 1-.042-.672v-3.12h-1.464v3.618c0 .152.012.354.036.606.028.252.086.518.174.798s.224.546.408.798c.184.248.432.452.744.612.316.156.712.234 1.188.234zm5.562-7.65h1.446v-1.326H25.77v1.326zm0 7.464h1.446v-6.48H25.77v6.48zm3.723 0h1.446v-8.82h-1.446v8.82zm6.202.18c.384 0 .73-.058 1.038-.174.308-.116.578-.278.81-.486v.48h1.278v-8.64h-1.458v2.478a2.43 2.43 0 0 0-.726-.366 2.834 2.834 0 0 0-.888-.132c-.612 0-1.144.148-1.596.444a2.962 2.962 0 0 0-1.044 1.218c-.248.516-.372 1.102-.372 1.758 0 .648.122 1.23.366 1.746s.588.924 1.032 1.224c.444.3.964.45 1.56.45zm.222-1.296c-.376 0-.686-.094-.93-.282a1.72 1.72 0 0 1-.546-.768 3.134 3.134 0 0 1-.174-1.074c0-.392.06-.748.18-1.068.124-.324.31-.58.558-.768.252-.192.572-.288.96-.288.552 0 .952.196 1.2.588.252.392.378.904.378 1.536 0 .628-.126 1.14-.378 1.536-.248.392-.664.588-1.248.588zm7.892 1.296a3.18 3.18 0 0 0 1.71-.48 2.89 2.89 0 0 0 1.152-1.368l-1.428-.432c-.288.616-.794.924-1.518.924-.492 0-.88-.142-1.164-.426-.284-.288-.454-.7-.51-1.236h4.692c.056-.78-.03-1.456-.258-2.028-.228-.572-.578-1.014-1.05-1.326-.468-.312-1.038-.468-1.71-.468-.636 0-1.196.144-1.68.432a2.94 2.94 0 0 0-1.134 1.212c-.272.524-.408 1.14-.408 1.848 0 .656.138 1.236.414 1.74.28.504.668.898 1.164 1.182.496.284 1.072.426 1.728.426zm-.024-5.574c.448 0 .792.118 1.032.354.244.232.398.602.462 1.11h-3.192c.172-.976.738-1.464 1.698-1.464zm4.657 5.394h1.452v-3.294c0-.376.068-.71.204-1.002.14-.292.358-.518.654-.678.2-.116.424-.184.672-.204a1.79 1.79 0 0 1 .666.048v-1.35a2.728 2.728 0 0 0-.9.018c-.308.052-.582.16-.822.324a1.673 1.673 0 0 0-.366.306 1.982 1.982 0 0 0-.282.39v-1.038h-1.278v6.48z"/>
        </g>
        <g clip-path="url(#d)">
            <path d="M26.688 177.75h7.625v-1.525h-7.625v1.525zM34.313 174.7h-7.625v-1.525h7.625v1.525zM26.688 171.65h3.05v-1.525h-3.05v1.525z" fill="#818181"/>
            <path fill-rule="evenodd" clip-rule="evenodd" d="M25.925 165.55a2.287 2.287 0 0 0-2.287 2.288v10.675a2.287 2.287 0 0 0 2.287 2.287h9.15a2.287 2.287 0 0 0 2.288-2.287v-7.625a5.338 5.338 0 0 0-5.338-5.338h-6.1zm0 1.525h5.338v3.813h4.575v7.625a.762.762 0 0 1-.763.762h-9.15a.762.762 0 0 1-.762-.762v-10.675c0-.422.341-.763.762-.763zm6.863.076a3.82 3.82 0 0 1 2.732 2.212h-2.732v-2.212z" fill="#818181"/>
            <path d="M23.01 199.425h.662v-5.845h2.263v-.635h-5.188v.635h2.263v5.845zm3.469 0h.661V197c0-.291.033-.581.1-.869.068-.291.224-.532.467-.724.177-.144.37-.227.576-.248.21-.024.405-.015.585.027v-.621a1.676 1.676 0 0 0-.724-.004c-.27.048-.501.156-.693.324-.144.108-.27.258-.378.45v-.77h-.594v4.86zm5.482.135c.47 0 .892-.115 1.264-.346.375-.231.658-.56.85-.986l-.616-.238c-.309.624-.818.936-1.526.936-.485 0-.866-.152-1.142-.455-.274-.303-.424-.733-.45-1.291h3.829c.024-.858-.163-1.53-.563-2.016-.395-.489-.953-.734-1.674-.734-.468 0-.874.105-1.219.315-.342.21-.607.509-.796.896-.19.387-.284.846-.284 1.377 0 .513.095.96.284 1.341.192.381.462.676.81.886.35.21.761.315 1.232.315zm-.01-4.522c.916 0 1.424.529 1.526 1.588h-3.123c.051-.513.213-.906.486-1.179s.643-.409 1.111-.409zm5.544 4.522c.471 0 .893-.115 1.265-.346.375-.231.658-.56.85-.986l-.616-.238c-.31.624-.818.936-1.526.936-.486 0-.867-.152-1.143-.455-.273-.303-.423-.733-.45-1.291h3.83c.024-.858-.164-1.53-.563-2.016-.396-.489-.954-.734-1.674-.734-.468 0-.874.105-1.22.315-.341.21-.607.509-.796.896-.189.387-.283.846-.283 1.377 0 .513.094.96.283 1.341.192.381.462.676.81.886.351.21.762.315 1.233.315zm-.009-4.522c.915 0 1.424.529 1.526 1.588h-3.123c.05-.513.213-.906.486-1.179s.643-.409 1.111-.409z" fill="#616161"/>
        </g>
        <path d="M0 226.55h61" stroke="silver" stroke-width=".762"/>
        <g clip-path="url(#e)">
            <g clip-path="url(#f)">
                <path fill-rule="evenodd" clip-rule="evenodd" d="M24.4 250.569c-.842 0-1.525.683-1.525 1.525v.762c0 .043.002.086.005.129a2.288 2.288 0 0 0-1.53 2.159v9.15a2.287 2.287 0 0 0 2.288 2.287h13.725a2.287 2.287 0 0 0 2.287-2.287v-9.15a2.288 2.288 0 0 0-2.287-2.288h-6.959a3.051 3.051 0 0 0-2.954-2.287H24.4zm4.371 2.287a1.524 1.524 0 0 0-1.32-.762H24.4v.762h4.37zm-5.133 1.525a.763.763 0 0 0-.763.763v9.15c0 .421.341.762.763.762h13.725a.762.762 0 0 0 .762-.762v-9.15a.763.763 0 0 0-.762-.763H23.638z" fill="#818181"/>
            </g>
            <path d="M15.491 284.825h.689l.54-1.57h2.88l.544 1.57h.689l-2.232-6.48h-.878l-2.232 6.48zm1.445-2.191 1.22-3.542 1.228 3.542h-2.448zm6.793 2.322c.597 0 1.065-.131 1.404-.392.342-.264.513-.625.513-1.084 0-.252-.054-.464-.162-.635-.105-.171-.287-.319-.545-.445-.255-.126-.606-.246-1.053-.36a7.739 7.739 0 0 1-.882-.266c-.204-.081-.345-.166-.423-.256a.501.501 0 0 1-.117-.333c0-.231.108-.416.324-.554.216-.138.497-.204.842-.198.366.006.667.093.904.261.237.165.38.39.428.675l.675-.121a1.39 1.39 0 0 0-.315-.743 1.731 1.731 0 0 0-.702-.495 2.53 2.53 0 0 0-.981-.18c-.366 0-.689.059-.968.176a1.496 1.496 0 0 0-.648.486c-.153.207-.23.448-.23.724 0 .225.052.417.154.576.105.156.283.296.535.419.252.12.597.24 1.035.36.411.111.719.207.923.288.207.081.345.169.414.265a.598.598 0 0 1 .103.365.741.741 0 0 1-.32.63c-.212.156-.503.234-.872.234-.378 0-.696-.081-.954-.243a1.079 1.079 0 0 1-.49-.662l-.676.113c.084.438.31.78.675 1.026.37.246.839.369 1.409.369zm4.998 0c.597 0 1.065-.131 1.404-.392.342-.264.513-.625.513-1.084 0-.252-.054-.464-.162-.635-.105-.171-.286-.319-.544-.445-.255-.126-.606-.246-1.053-.36a7.739 7.739 0 0 1-.882-.266c-.204-.081-.345-.166-.423-.256a.501.501 0 0 1-.117-.333c0-.231.108-.416.324-.554.216-.138.496-.204.841-.198.366.006.668.093.905.261.237.165.38.39.427.675l.675-.121a1.39 1.39 0 0 0-.315-.743 1.731 1.731 0 0 0-.702-.495 2.53 2.53 0 0 0-.98-.18c-.367 0-.69.059-.968.176a1.496 1.496 0 0 0-.648.486c-.153.207-.23.448-.23.724 0 .225.051.417.153.576.105.156.284.296.536.419.252.12.597.24 1.035.36.41.111.718.207.922.288.207.081.345.169.414.265a.598.598 0 0 1 .104.365.741.741 0 0 1-.32.63c-.213.156-.504.234-.873.234-.378 0-.696-.081-.954-.243a1.079 1.079 0 0 1-.49-.662l-.675.113c.084.438.309.78.675 1.026.369.246.838.369 1.408.369zm5.242.004c.47 0 .892-.115 1.264-.346.375-.231.659-.56.85-.986l-.616-.238c-.309.624-.817.936-1.525.936-.486 0-.867-.152-1.143-.455-.273-.303-.423-.733-.45-1.291h3.83c.023-.858-.164-1.53-.563-2.016-.396-.489-.954-.734-1.674-.734-.468 0-.875.105-1.22.315-.342.21-.607.509-.796.896-.19.387-.284.846-.284 1.377 0 .513.095.96.284 1.341.192.381.462.676.81.886.35.21.762.315 1.233.315zm-.01-4.522c.916 0 1.424.529 1.526 1.588h-3.123c.051-.513.213-.906.486-1.179s.644-.409 1.112-.409zm6.134 4.387v-.58c-.348.057-.64.066-.878.027a.677.677 0 0 1-.513-.36.82.82 0 0 1-.094-.36 24.286 24.286 0 0 1-.005-.513v-2.507h1.49v-.567h-1.49v-1.35h-.657v1.35h-1.039v.567h1.04v2.534c0 .237.002.448.008.634.01.186.058.368.145.545.108.216.265.375.472.477.21.102.447.159.711.171a3.24 3.24 0 0 0 .81-.068zm3.041.131c.597 0 1.065-.131 1.404-.392.342-.264.513-.625.513-1.084 0-.252-.054-.464-.162-.635-.105-.171-.287-.319-.545-.445-.255-.126-.605-.246-1.053-.36a7.739 7.739 0 0 1-.881-.266c-.204-.081-.345-.166-.423-.256a.501.501 0 0 1-.117-.333c0-.231.108-.416.324-.554.215-.138.496-.204.841-.198.366.006.668.093.905.261.236.165.379.39.427.675l.675-.121a1.39 1.39 0 0 0-.315-.743 1.731 1.731 0 0 0-.702-.495 2.53 2.53 0 0 0-.981-.18c-.366 0-.688.059-.967.176a1.496 1.496 0 0 0-.648.486c-.154.207-.23.448-.23.724 0 .225.051.417.153.576.105.156.284.296.536.419.252.12.596.24 1.035.36.41.111.718.207.922.288.207.081.345.169.414.265a.598.598 0 0 1 .103.365.741.741 0 0 1-.319.63c-.213.156-.504.234-.873.234-.378 0-.696-.081-.954-.243a1.079 1.079 0 0 1-.49-.662l-.675.113c.084.438.308.78.674 1.026.37.246.839.369 1.409.369z" fill="#616161"/>
        </g>
    </g>
    <path d="M0 71v-.763h-.762V71H0zm61 0h.763v-.763H61V71zm0 1009v.76h.763v-.76H61zm-61 0h-.762v.76H0v-.76zM0 71.763h61v-1.526H0v1.526zM60.237 71v1009h1.526V71h-1.526zM61 1079.24H0v1.52h61v-1.52zM.763 1080V71H-.763v1009H.764z" fill="silver"/>
    <path fill="#fff" d="M532 160h375v812H532z"/>
    <g filter="url(#g)">
        <rect opacity=".5" x="331" y="1038" width="206" height="34.65" rx="2" fill="#E0E0E0"/>
        <path fill-rule="evenodd" clip-rule="evenodd" d="M345.432 1047.55h6.661c.613 0 1.11.5 1.11 1.11v13.33c0 .61-.497 1.11-1.11 1.11h-6.661c-.613 0-1.11-.5-1.11-1.11v-13.33c0-.61.497-1.11 1.11-1.11zm6.661-1.11c1.226 0 2.22 1 2.22 2.22v13.33c0 1.22-.994 2.22-2.22 2.22h-6.661c-1.226 0-2.22-1-2.22-2.22v-13.33c0-1.22.994-2.22 2.22-2.22h6.661z" fill="#616161"/>
        <path fill-rule="evenodd" clip-rule="evenodd" d="M348.762 1061.99c-.613 0-1.11-.5-1.11-1.11 0-.62.497-1.11 1.11-1.11.614 0 1.111.49 1.111 1.11 0 .61-.497 1.11-1.111 1.11z" fill="#616161"/>
        <path d="M367.405 1052.26h.809v-.91h-.809v.91zm0 7.06h.809v-5.94h-.809v5.94zm2.642 0h.809v-3h2.249c.074 0 .16-.01.259-.01.099-.01.198-.02.297-.04.616-.09 1.091-.36 1.424-.81.338-.45.506-.98.506-1.6 0-.62-.167-1.15-.5-1.6-.334-.44-.811-.72-1.43-.81a1.496 1.496 0 0 0-.297-.03c-.096-.01-.182-.02-.259-.02h-3.058v7.92zm.809-3.77v-3.37h2.227c.066 0 .143 0 .231.01l.259.03c.407.09.706.3.896.61.195.32.292.66.292 1.03s-.097.71-.292 1.03c-.19.32-.489.52-.896.61a1.98 1.98 0 0 1-.259.04c-.088 0-.165.01-.231.01h-2.227zm6.009 3.77h.814v-3.16c0-.67.151-1.2.451-1.58.301-.38.737-.57 1.309-.57.415 0 .748.1 1.001.3.253.2.437.47.55.81.114.35.171.74.171 1.17v3.03h.814v-3.26c0-.34-.042-.67-.127-1-.08-.34-.212-.64-.396-.92a2.11 2.11 0 0 0-.731-.66c-.305-.16-.68-.24-1.128-.24-.425 0-.81.08-1.155.24-.341.17-.621.41-.841.73v-2.81h-.732v7.92zm9.202.17c.587 0 1.089-.13 1.507-.4.422-.26.745-.63.968-1.1.228-.47.341-1.02.341-1.64 0-.61-.112-1.15-.335-1.62-.22-.48-.541-.84-.963-1.11-.418-.27-.924-.4-1.518-.4-.579 0-1.08.13-1.501.4-.418.26-.741.62-.968 1.09-.228.47-.341 1.02-.341 1.64 0 .61.11 1.15.33 1.63.223.47.544.84.962 1.11.422.27.928.4 1.518.4zm0-.78c-.641 0-1.127-.21-1.457-.64-.33-.43-.495-1.01-.495-1.72 0-.69.159-1.26.478-1.69.319-.44.811-.66 1.474-.66.657 0 1.146.21 1.469.64.326.42.489.99.489 1.71 0 .7-.161 1.27-.484 1.71-.322.44-.814.65-1.474.65zm4.209.61h.814v-3.16c0-.67.15-1.2.451-1.58.3-.38.737-.57 1.309-.57.414 0 .748.1 1.001.3.253.2.436.47.55.81.113.35.17.74.17 1.17v3.03h.814v-3.26c0-.34-.042-.67-.126-1a2.87 2.87 0 0 0-.396-.92 2.114 2.114 0 0 0-.732-.66c-.304-.16-.68-.24-1.127-.24-.426 0-.811.08-1.155.24-.341.17-.622.41-.842.73v-.83h-.731v5.94zm9.192.17c.576 0 1.091-.14 1.545-.42.459-.29.805-.69 1.04-1.21l-.754-.29c-.377.76-.999 1.14-1.864 1.14-.594 0-1.06-.18-1.397-.55-.334-.37-.517-.9-.55-1.58h4.68c.03-1.05-.199-1.87-.687-2.46-.484-.6-1.166-.9-2.046-.9-.572 0-1.069.13-1.491.38-.418.26-.742.63-.973 1.1-.231.47-.347 1.03-.347 1.68 0 .63.116 1.18.347 1.64.235.47.565.83.99 1.08.429.26.931.39 1.507.39zm-.011-5.53c1.118 0 1.74.65 1.864 1.94h-3.817c.063-.62.261-1.1.594-1.44.334-.33.787-.5 1.359-.5zm9.1 5.36h.819v-7.92h-.819l-1.491.9v.9l1.491-.89v7.01zm4.459 0h5.17v-.78h-3.938l2.816-2.54c.385-.34.668-.68.847-1 .184-.32.275-.73.275-1.23 0-.47-.112-.9-.335-1.28a2.44 2.44 0 0 0-.908-.91 2.448 2.448 0 0 0-1.292-.34c-.488 0-.928.11-1.32.33-.389.22-.697.52-.924.9-.228.37-.341.8-.341 1.29h.825c-.004-.31.069-.6.22-.86.154-.27.363-.48.627-.64.264-.16.564-.24.902-.24.326 0 .619.07.88.23.26.16.465.36.616.63.154.26.231.56.231.88 0 .28-.052.54-.154.8-.103.25-.306.51-.611.79l-3.58 3.23-.006.74zm9.344 0h.808v-3h2.25c.073 0 .159-.01.258-.01.099-.01.198-.02.297-.04.616-.09 1.091-.36 1.425-.81.337-.45.506-.98.506-1.6 0-.62-.167-1.15-.501-1.6-.333-.44-.81-.72-1.43-.81a1.496 1.496 0 0 0-.297-.03c-.095-.01-.181-.02-.258-.02h-3.058v7.92zm.808-3.77v-3.37h2.228c.066 0 .143 0 .231.01l.258.03c.407.09.706.3.897.61.194.32.291.66.291 1.03s-.097.71-.291 1.03c-.191.32-.49.52-.897.61-.08.02-.167.03-.258.04-.088 0-.165.01-.231.01h-2.228zm6.015 3.77h.809v-2.96c0-.36.04-.71.121-1.06.084-.36.275-.65.572-.89.216-.17.451-.27.704-.3.256-.03.495-.02.715.03v-.76a2.196 2.196 0 0 0-.886 0c-.33.06-.612.19-.847.4-.176.13-.33.31-.462.55v-.95h-.726v5.94zm6.522.17c.587 0 1.089-.13 1.507-.4.422-.26.744-.63.968-1.1.227-.47.341-1.02.341-1.64 0-.61-.112-1.15-.335-1.62-.22-.48-.541-.84-.963-1.11-.418-.27-.924-.4-1.518-.4-.579 0-1.08.13-1.501.4-.418.26-.741.62-.968 1.09-.228.47-.341 1.02-.341 1.64 0 .61.11 1.15.33 1.63.223.47.544.84.962 1.11.422.27.928.4 1.518.4zm0-.78c-.642 0-1.127-.21-1.457-.64-.33-.43-.495-1.01-.495-1.72 0-.69.159-1.26.478-1.69.319-.44.81-.66 1.474-.66.656 0 1.146.21 1.469.64.326.42.489.99.489 1.71 0 .7-.161 1.27-.484 1.71-.323.44-.814.65-1.474.65z" fill="#000"/>
        <path fill-rule="evenodd" clip-rule="evenodd" d="M517.496 1053.28a.378.378 0 0 1 .523 0l4.179 4.18 4.179-4.18a.378.378 0 0 1 .523 0c.145.15.145.38 0 .52l-4.44 4.44a.361.361 0 0 1-.524 0l-4.44-4.44a.365.365 0 0 1 0-.52z" fill="#616161"/>
    </g>
    <g filter="url(#h)">
        <path d="M690.444 1042c0-1.89 0-2.83.586-3.41.586-.59 1.529-.59 3.414-.59h110.445c1.885 0 2.828 0 3.414.59.586.58.586 1.52.586 3.41v27c0 1.89 0 2.83-.586 3.41-.586.59-1.529.59-3.414.59H694.444c-1.885 0-2.828 0-3.414-.59-.586-.58-.586-1.52-.586-3.41v-27z" fill="#E6E6E6" fill-opacity=".5"/>
        <rect x="694.333" y="1041.89" width="27.556" height="27.222" rx="4" fill="#fff"/>
        <path fill-rule="evenodd" clip-rule="evenodd" d="M702.111 1055.5c0-.66.537-1.2 1.2-1.2h9.6c.663 0 1.2.54 1.2 1.2 0 .66-.537 1.2-1.2 1.2h-9.6c-.663 0-1.2-.54-1.2-1.2z" fill="#616161"/>
        <path d="M733.706 1061h1.722v-10.08h-1.722l-1.89 1.13v1.87l1.89-1.16v8.24zm9.059.21c-.718 0-1.351-.15-1.897-.46-.541-.3-.966-.73-1.274-1.28-.303-.54-.455-1.17-.455-1.89v-3.24c0-.72.152-1.35.455-1.89.308-.55.733-.97 1.274-1.28.546-.31 1.179-.46 1.897-.46.719 0 1.349.15 1.89.46.546.31.971.73 1.274 1.28.308.54.462 1.17.462 1.89v3.24c0 .72-.154 1.35-.462 1.89-.303.55-.728.98-1.274 1.28-.541.31-1.171.46-1.89.46zm0-1.6a1.927 1.927 0 0 0 1.645-.94c.173-.29.259-.61.259-.97v-3.49c0-.36-.086-.68-.259-.97a1.85 1.85 0 0 0-.686-.68 1.835 1.835 0 0 0-.959-.26c-.354 0-.676.09-.966.26-.284.17-.513.39-.686.68-.168.29-.252.61-.252.97v3.49c0 .36.084.68.252.97.173.28.402.51.686.68.29.17.612.26.966.26zm8.752 1.6c-.719 0-1.351-.15-1.897-.46-.541-.3-.966-.73-1.274-1.28-.303-.54-.455-1.17-.455-1.89v-3.24c0-.72.152-1.35.455-1.89.308-.55.733-.97 1.274-1.28.546-.31 1.178-.46 1.897-.46.719 0 1.349.15 1.89.46.546.31.971.73 1.274 1.28.308.54.462 1.17.462 1.89v3.24c0 .72-.154 1.35-.462 1.89-.303.55-.728.98-1.274 1.28-.541.31-1.171.46-1.89.46zm0-1.6c.355 0 .674-.09.959-.26.289-.17.518-.4.686-.68.173-.29.259-.61.259-.97v-3.49c0-.36-.086-.68-.259-.97a1.857 1.857 0 0 0-.686-.68 1.838 1.838 0 0 0-.959-.26 1.926 1.926 0 0 0-1.652.94c-.168.29-.252.61-.252.97v3.49c0 .36.084.68.252.97.173.28.401.51.686.68.289.17.611.26.966.26zm7.765-3.86c.462 0 .882-.11 1.26-.34.382-.22.688-.53.917-.91.228-.38.343-.8.343-1.27s-.115-.89-.343-1.27a2.637 2.637 0 0 0-.917-.91 2.373 2.373 0 0 0-1.26-.34c-.448 0-.864.11-1.246.34-.383.23-.691.54-.924.92-.234.38-.35.8-.35 1.26 0 .47.114.89.343 1.27.228.38.532.69.91.91.382.23.805.34 1.267.34zm-.98 5.25 8.967-8.95-1.12-1.13-8.967 8.96 1.12 1.12zm.98-6.69c-.29 0-.542-.11-.756-.32a1.05 1.05 0 0 1-.322-.76c0-.29.107-.54.322-.76a1.049 1.049 0 0 1 1.512 0 1.054 1.054 0 0 1 0 1.52c-.215.21-.467.32-.756.32zm5.887 6.9c.462 0 .882-.11 1.26-.34.382-.22.688-.53.917-.91.228-.38.343-.8.343-1.27s-.115-.89-.343-1.27a2.637 2.637 0 0 0-.917-.91 2.373 2.373 0 0 0-1.26-.34c-.448 0-.864.11-1.246.34-.383.23-.691.54-.924.92-.234.38-.35.8-.35 1.26 0 .47.112.89.336 1.27.228.38.534.69.917.91.382.23.805.34 1.267.34zm0-1.44c-.29 0-.542-.11-.756-.32a1.05 1.05 0 0 1-.322-.76c0-.29.107-.54.322-.76a1.049 1.049 0 0 1 1.512 0 1.054 1.054 0 0 1 0 1.52c-.215.21-.467.32-.756.32z" fill="#414141"/>
        <rect x="777.444" y="1041.89" width="27.556" height="27.222" rx="4" fill="#fff"/>
        <path fill-rule="evenodd" clip-rule="evenodd" d="M791.222 1048.64c.474 0 .857.39.857.86v5.14h5.143a.861.861 0 0 1 0 1.72h-5.143v5.14c0 .47-.383.86-.857.86a.862.862 0 0 1-.857-.86v-5.14h-5.143a.862.862 0 0 1-.857-.86c0-.47.384-.86.857-.86h5.143v-5.14c0-.47.384-.86.857-.86z" fill="#616161"/>
    </g>
    <g filter="url(#i)">
        <path d="M1062.33 1042c0-1.89 0-2.83.59-3.41.58-.59 1.53-.59 3.41-.59H1105c1.89 0 2.83 0 3.41.59.59.58.59 1.52.59 3.41v27c0 1.89 0 2.83-.59 3.41-.58.59-1.52.59-3.41.59h-38.67c-1.88 0-2.83 0-3.41-.59-.59-.58-.59-1.52-.59-3.41v-27z" fill="#E6E6E6" fill-opacity=".5"/>
        <rect x="1066.22" y="1041.89" width="38.889" height="27.222" rx="3.889" fill="#fff"/>
        <path fill-rule="evenodd" clip-rule="evenodd" d="M1081.08 1049.88c.28.29.28.75 0 1.03l-4.59 4.59 4.59 4.59c.28.28.28.75 0 1.03-.29.28-.75.28-1.03 0l-5.11-5.1a.749.749 0 0 1 0-1.04l5.11-5.1c.28-.28.74-.28 1.03 0zM1090.26 1049.88c-.29.29-.29.75 0 1.03l4.58 4.59-4.58 4.59c-.29.28-.29.75 0 1.03.28.28.74.28 1.03 0l5.1-5.1a.73.73 0 0 0 0-1.04l-5.1-5.1a.736.736 0 0 0-1.03 0zM1088.8 1045.32c.38.12.6.53.48.92l-5.83 18.95c-.12.39-.53.6-.91.49a.736.736 0 0 1-.49-.92l5.84-18.95c.11-.39.52-.6.91-.49z" fill="#616161"/>
    </g>
    <path stroke="silver" d="M319.5 1031.5h801v48h-801z"/>
    <defs>
        <clipPath id="a">
            <path d="M0 71h61v1009H0V71z" fill="#fff"/>
        </clipPath>
        <clipPath id="b">
            <path fill="#fff" transform="translate(6.1 80.15)" d="M0 0h49.563v54.9H0z"/>
        </clipPath>
        <clipPath id="c">
            <path fill="#fff" transform="translate(21.731 80.15)" d="M0 0h18.3v18.3H0z"/>
        </clipPath>
        <clipPath id="d">
            <path fill="#fff" transform="translate(6.1 164.025)" d="M0 0h48.8v39.65H0z"/>
        </clipPath>
        <clipPath id="e">
            <path fill="#fff" transform="translate(6.1 249.425)" d="M0 0h48.8v39.65H0z"/>
        </clipPath>
        <clipPath id="f">
            <path fill="#fff" transform="translate(21.35 249.425)" d="M0 0h18.3v18.3H0z"/>
        </clipPath>
        <filter id="g" x="331" y="1038" width="206" height="36.944" filterUnits="userSpaceOnUse" color-interpolation-filters="sRGB">
            <feFlood flood-opacity="0" result="BackgroundImageFix"/>
            <feBlend in="SourceGraphic" in2="BackgroundImageFix" result="shape"/>
            <feColorMatrix in="SourceAlpha" values="0 0 0 0 0 0 0 0 0 0 0 0 0 0 0 0 0 0 127 0" result="hardAlpha"/>
            <feOffset dy="1.944"/>
            <feGaussianBlur stdDeviation="1.944"/>
            <feComposite in2="hardAlpha" operator="arithmetic" k2="-1" k3="1"/>
            <feColorMatrix values="0 0 0 0 0.380392 0 0 0 0 0.380392 0 0 0 0 0.380392 0 0 0 0.2 0"/>
            <feBlend mode="multiply" in2="shape" result="effect1_innerShadow"/>
            <feColorMatrix in="SourceAlpha" values="0 0 0 0 0 0 0 0 0 0 0 0 0 0 0 0 0 0 127 0" result="hardAlpha"/>
            <feOffset dy=".972"/>
            <feGaussianBlur stdDeviation=".972"/>
            <feComposite in2="hardAlpha" operator="arithmetic" k2="-1" k3="1"/>
            <feColorMatrix values="0 0 0 0 0.380392 0 0 0 0 0.380392 0 0 0 0 0.380392 0 0 0 0.2 0"/>
            <feBlend mode="multiply" in2="effect1_innerShadow" result="effect2_innerShadow"/>
        </filter>
        <filter id="h" x="690.444" y="1038" width="118.444" height="36.944" filterUnits="userSpaceOnUse" color-interpolation-filters="sRGB">
            <feFlood flood-opacity="0" result="BackgroundImageFix"/>
            <feBlend in="SourceGraphic" in2="BackgroundImageFix" result="shape"/>
            <feColorMatrix in="SourceAlpha" values="0 0 0 0 0 0 0 0 0 0 0 0 0 0 0 0 0 0 127 0" result="hardAlpha"/>
            <feOffset dy="1.944"/>
            <feGaussianBlur stdDeviation="1.944"/>
            <feComposite in2="hardAlpha" operator="arithmetic" k2="-1" k3="1"/>
            <feColorMatrix values="0 0 0 0 0.380392 0 0 0 0 0.380392 0 0 0 0 0.380392 0 0 0 0.2 0"/>
            <feBlend mode="multiply" in2="shape" result="effect1_innerShadow"/>
            <feColorMatrix in="SourceAlpha" values="0 0 0 0 0 0 0 0 0 0 0 0 0 0 0 0 0 0 127 0" result="hardAlpha"/>
            <feOffset dy=".972"/>
            <feGaussianBlur stdDeviation=".972"/>
            <feComposite in2="hardAlpha" operator="arithmetic" k2="-1" k3="1"/>
            <feColorMatrix values="0 0 0 0 0.380392 0 0 0 0 0.380392 0 0 0 0 0.380392 0 0 0 0.2 0"/>
            <feBlend mode="multiply" in2="effect1_innerShadow" result="effect2_innerShadow"/>
        </filter>
        <filter id="i" x="1062.33" y="1038" width="46.667" height="36.944" filterUnits="userSpaceOnUse" color-interpolation-filters="sRGB">
            <feFlood flood-opacity="0" result="BackgroundImageFix"/>
            <feBlend in="SourceGraphic" in2="BackgroundImageFix" result="shape"/>
            <feColorMatrix in="SourceAlpha" values="0 0 0 0 0 0 0 0 0 0 0 0 0 0 0 0 0 0 127 0" result="hardAlpha"/>
            <feOffset dy="1.944"/>
            <feGaussianBlur stdDeviation="1.944"/>
            <feComposite in2="hardAlpha" operator="arithmetic" k2="-1" k3="1"/>
            <feColorMatrix values="0 0 0 0 0.380392 0 0 0 0 0.380392 0 0 0 0 0.380392 0 0 0 0.2 0"/>
            <feBlend mode="multiply" in2="shape" result="effect1_innerShadow"/>
            <feColorMatrix in="SourceAlpha" values="0 0 0 0 0 0 0 0 0 0 0 0 0 0 0 0 0 0 127 0" result="hardAlpha"/>
            <feOffset dy=".972"/>
            <feGaussianBlur stdDeviation=".972"/>
            <feComposite in2="hardAlpha" operator="arithmetic" k2="-1" k3="1"/>
            <feColorMatrix values="0 0 0 0 0.380392 0 0 0 0 0.380392 0 0 0 0 0.380392 0 0 0 0.2 0"/>
            <feBlend mode="multiply" in2="effect1_innerShadow" result="effect2_innerShadow"/>
        </filter>
    </defs>
</svg>
